<?xml version="1.0" encoding="utf-8"?>
<!-- Generator: Adobe Illustrator 24.1.3, SVG Export Plug-In . SVG Version: 6.00 Build 0)  -->
<svg version="1.1" id="Layer_1" xmlns="http://www.w3.org/2000/svg" xmlns:xlink="http://www.w3.org/1999/xlink" x="0px" y="0px"
	 viewBox="0 0 339.9 128.5" style="enable-background:new 0 0 339.9 128.5;" xml:space="preserve">
<style type="text/css">
	.st0{display:none;}
	.st1{display:inline;fill:#FFFFFF;}
	.st2{display:inline;}
	.st3{fill:none;stroke:#D70003;stroke-width:6;stroke-linecap:round;stroke-linejoin:round;stroke-miterlimit:10;}
	.st4{fill:#D70003;}
	.st5{fill:none;stroke:#292929;stroke-width:6;stroke-linecap:round;stroke-linejoin:round;stroke-miterlimit:10;}
	.st6{fill:#292929;}
</style>
<g class="st0">
	<path class="st1" d="M295.3,41.9c0-0.5,0.2-1,0.6-1.4s0.9-0.6,1.4-0.6c0.6,0,1,0.2,1.4,0.6s0.6,0.9,0.6,1.4c0,0.6-0.2,1-0.6,1.4
		s-0.9,0.6-1.4,0.6s-1-0.2-1.4-0.6C295.5,43,295.3,42.5,295.3,41.9z"/>
	<path class="st1" d="M295.6,53.8c0-1.4,0.2-2.6,0.6-3.8s0.9-2,1.6-2.7c0.3-0.3,0.7-0.4,1.1-0.4s0.7,0.2,1,0.6s0.4,0.8,0.4,1.1
		s-0.2,0.7-0.5,1c-0.4,0.3-0.7,0.9-1,1.6s-0.5,1.5-0.5,2.4c0,1.1,0.2,2,0.6,2.6s0.8,0.9,1.4,0.9s1.1-0.3,1.5-0.8
		c0.4-0.6,0.8-1.6,1-3.1c0.4-2,1-3.4,1.7-4.2s1.7-1.3,2.8-1.3c1,0,1.8,0.3,2.5,0.9s1.1,1.3,1.5,2.2c0.3,0.9,0.5,1.9,0.5,2.8
		c0,1.3-0.2,2.4-0.6,3.4s-1,1.8-1.7,2.3c-0.3,0.3-0.6,0.4-1,0.4c-0.3,0-0.6-0.2-0.9-0.5c-0.2-0.3-0.3-0.7-0.2-1.1
		c0.1-0.4,0.3-0.8,0.5-1.1c0.5-0.5,0.8-1,1-1.6s0.3-1.2,0.3-1.9c0-0.9-0.1-1.6-0.4-2.2s-0.7-0.9-1.3-0.9c-0.3,0-0.7,0.1-0.9,0.3
		c-0.3,0.2-0.5,0.5-0.8,1.1s-0.4,1.3-0.7,2.4c-0.3,1.5-0.7,2.6-1.1,3.4s-1,1.4-1.6,1.8s-1.3,0.6-2,0.6c-0.9,0-1.7-0.2-2.4-0.7
		c-0.7-0.5-1.3-1.2-1.7-2.1C295.8,56.3,295.6,55.1,295.6,53.8z"/>
	<path class="st1" d="M295.8,69.5c0-1,0.2-1.8,0.7-2.6c0.5-0.8,1.2-1.4,2-1.8c0.9-0.4,1.8-0.7,2.9-0.7h13.8c0.4,0,0.8,0.1,1,0.4
		c0.3,0.3,0.4,0.6,0.4,1s-0.1,0.8-0.4,1c-0.3,0.3-0.6,0.4-1,0.4h-13.8c-0.8,0-1.4,0.2-1.9,0.6s-0.8,0.9-0.8,1.6v1
		c0,0.3-0.1,0.6-0.4,0.9c-0.3,0.2-0.6,0.4-1,0.4s-0.8-0.2-1-0.5c-0.3-0.3-0.4-0.7-0.4-1.2v-0.5L295.8,69.5L295.8,69.5z M308.5,63.1
		c0-0.4,0.1-0.7,0.3-1c0.2-0.3,0.5-0.4,0.9-0.4s0.7,0.1,0.9,0.4c0.2,0.3,0.3,0.6,0.3,1v6.7c0,0.4-0.1,0.7-0.3,1
		c-0.2,0.3-0.5,0.4-0.9,0.4c-0.3,0-0.6-0.1-0.9-0.4s-0.3-0.6-0.3-1V63.1z"/>
	<path class="st1" d="M295.6,82c0-1.3,0.3-2.5,0.9-3.6s1.4-1.9,2.5-2.5s2.5-0.9,4.1-0.9h7.1c0.4,0,0.8,0.1,1.1,0.4s0.4,0.6,0.4,1.1
		c0,0.4-0.1,0.8-0.4,1.1c-0.3,0.3-0.6,0.4-1.1,0.4h-7.1c-1.1,0-2,0.2-2.7,0.6s-1.2,1-1.6,1.7c-0.3,0.7-0.5,1.5-0.5,2.3
		s0.2,1.6,0.5,2.2s0.8,1.2,1.3,1.6c0.6,0.4,1.2,0.6,1.9,0.6v1.8c-1.2,0-2.3-0.3-3.2-0.9s-1.7-1.4-2.3-2.4S295.6,83.3,295.6,82z
		 M295.8,88.4c0-0.4,0.1-0.8,0.4-1.1c0.3-0.3,0.6-0.4,1.1-0.4h12.9c0.4,0,0.8,0.1,1.1,0.4s0.4,0.6,0.4,1.1c0,0.4-0.1,0.8-0.4,1.1
		s-0.6,0.4-1.1,0.4h-12.9c-0.4,0-0.8-0.1-1.1-0.4C295.9,89.2,295.8,88.9,295.8,88.4z"/>
	<path class="st1" d="M295.6,102.3c0-1.5,0.4-2.9,1.1-4.1s1.7-2.2,2.9-2.9c1.2-0.7,2.6-1.1,4.1-1.1s2.9,0.3,4.1,1
		c1.2,0.6,2.2,1.5,2.9,2.7c0.7,1.1,1.1,2.4,1.1,3.8c0,1.1-0.2,2.2-0.7,3.2s-1.1,1.8-1.9,2.4h7.8c0.4,0,0.8,0.1,1.1,0.4
		c0.3,0.3,0.4,0.6,0.4,1.1c0,0.4-0.1,0.8-0.4,1.1c-0.3,0.3-0.6,0.4-1.1,0.4h-13.2c-1.5,0-2.9-0.4-4.1-1.1s-2.2-1.7-2.9-2.9
		S295.6,103.8,295.6,102.3z M298.2,102.3c0,1,0.2,1.9,0.7,2.6s1.1,1.4,2,1.8c0.8,0.4,1.8,0.7,2.8,0.7s2-0.2,2.8-0.7
		c0.8-0.4,1.5-1.1,1.9-1.8s0.7-1.7,0.7-2.6c0-1-0.2-1.8-0.7-2.6c-0.5-0.8-1.1-1.4-1.9-1.9s-1.7-0.7-2.8-0.7c-1,0-2,0.2-2.8,0.7
		s-1.5,1.1-2,1.9C298.5,100.5,298.2,101.4,298.2,102.3z"/>
	<path class="st1" d="M295.8,117.3c0-0.4,0.1-0.8,0.4-1.1c0.3-0.3,0.6-0.4,1.1-0.4h12.8c0.4,0,0.8,0.1,1.1,0.4
		c0.3,0.3,0.4,0.6,0.4,1.1c0,0.4-0.1,0.8-0.4,1.1c-0.3,0.3-0.6,0.4-1.1,0.4h-12.9c-0.4,0-0.8-0.1-1.1-0.4
		C295.9,118.1,295.8,117.7,295.8,117.3z M314.2,117.3c0-0.5,0.2-1,0.6-1.3s0.8-0.6,1.3-0.6s1,0.2,1.3,0.6s0.6,0.8,0.6,1.3
		s-0.2,1-0.6,1.3s-0.8,0.6-1.3,0.6s-1-0.2-1.3-0.6S314.2,117.8,314.2,117.3z"/>
	<path class="st1" d="M295.6,131.5c0-1.6,0.3-2.9,1-4.1s1.6-2.1,2.8-2.8c1.2-0.7,2.6-1,4.2-1s3,0.3,4.2,1s2.2,1.6,2.8,2.8
		c0.7,1.2,1,2.6,1,4.1s-0.3,2.9-1,4.1s-1.6,2.1-2.8,2.8c-1.2,0.7-2.6,1-4.2,1s-3-0.3-4.2-1s-2.2-1.6-2.8-2.8
		C296,134.4,295.6,133,295.6,131.5z M298.2,131.5c0,1,0.2,1.9,0.7,2.7s1.1,1.4,1.9,1.8s1.7,0.7,2.8,0.7c1.1,0,2-0.2,2.8-0.7
		c0.8-0.4,1.5-1,1.9-1.8s0.7-1.7,0.7-2.7s-0.2-1.9-0.7-2.7s-1.1-1.4-1.9-1.8s-1.8-0.7-2.8-0.7c-1.1,0-2,0.2-2.8,0.7
		c-0.8,0.4-1.5,1.1-1.9,1.8C298.5,129.6,298.2,130.5,298.2,131.5z"/>
</g>
<g class="st0">
	<g class="st2">
		<g>
			<path class="st3" d="M-701.1,141.1h58.9c16.5,0,30-13.5,30-30c0-9.9-4.8-18.6-12.2-24.1"/>
		</g>
		<g>
			<path class="st3" d="M-632.7,21c-12,0-38.5,0-38.5,0c-16.5,0-30,13.5-30,30s13.5,30,30,30h27.5"/>
		</g>
		<path class="st3" d="M-532,81.1l-26.1,56.1c-2.4,5.2-6.3,5.2-8.7,0l-50.4-108.4"/>
		<path class="st3" d="M-437.8,21c-24.6,0-60,0-60.3,0c-6.9,0-8.7,5.8-9.6,7.7l0,0l-16.6,35.6"/>
		<path class="st3" d="M-422.9,141.2v-111c0-5,4.1-9,9-9h44.5"/>
		<path class="st3" d="M-510,108.2v23.7c0,5,4.1,9.2,9.2,9.2h61"/>
		<path class="st3" d="M-467.1,81.1h-33.8c-5,0-9.2,4.1-9.2,9.2"/>
	</g>
	<g class="st2">
		<path class="st4" d="M-399.7,41.9c0-0.5,0.2-1,0.6-1.4s0.9-0.6,1.4-0.6c0.6,0,1,0.2,1.4,0.6s0.6,0.9,0.6,1.4c0,0.6-0.2,1-0.6,1.4
			s-0.9,0.6-1.4,0.6s-1-0.2-1.4-0.6C-399.5,43-399.7,42.5-399.7,41.9z"/>
		<path class="st4" d="M-399.4,53.8c0-1.4,0.2-2.6,0.6-3.8s0.9-2,1.6-2.7c0.3-0.3,0.7-0.4,1.1-0.4s0.7,0.2,1,0.6s0.4,0.8,0.4,1.1
			s-0.2,0.7-0.5,1c-0.4,0.3-0.7,0.9-1,1.6s-0.5,1.5-0.5,2.4c0,1.1,0.2,2,0.6,2.6s0.8,0.9,1.4,0.9s1.1-0.3,1.5-0.8
			c0.4-0.6,0.8-1.6,1-3.1c0.4-2,1-3.4,1.7-4.2s1.7-1.3,2.8-1.3c1,0,1.8,0.3,2.5,0.9c0.7,0.6,1.1,1.3,1.5,2.2
			c0.3,0.9,0.5,1.9,0.5,2.8c0,1.3-0.2,2.4-0.6,3.4s-1,1.8-1.7,2.3c-0.3,0.3-0.6,0.4-1,0.4c-0.3,0-0.6-0.2-0.9-0.5
			c-0.2-0.3-0.3-0.7-0.2-1.1s0.3-0.8,0.5-1.1c0.5-0.5,0.8-1,1-1.6s0.3-1.2,0.3-1.9c0-0.9-0.1-1.6-0.4-2.2s-0.7-0.9-1.3-0.9
			c-0.3,0-0.7,0.1-0.9,0.3c-0.3,0.2-0.5,0.5-0.8,1.1s-0.4,1.3-0.7,2.4c-0.3,1.5-0.7,2.6-1.1,3.4c-0.4,0.8-1,1.4-1.6,1.8
			s-1.3,0.6-2,0.6c-0.9,0-1.7-0.2-2.4-0.7c-0.7-0.5-1.3-1.2-1.7-2.1C-399.2,56.3-399.4,55.1-399.4,53.8z"/>
		<path class="st4" d="M-399.2,69.5c0-1,0.2-1.8,0.7-2.6c0.5-0.8,1.2-1.4,2-1.8c0.9-0.4,1.8-0.7,2.9-0.7h13.8c0.4,0,0.8,0.1,1,0.4
			c0.3,0.3,0.4,0.6,0.4,1s-0.1,0.8-0.4,1c-0.3,0.3-0.6,0.4-1,0.4h-13.8c-0.8,0-1.4,0.2-1.9,0.6s-0.8,0.9-0.8,1.6v1
			c0,0.3-0.1,0.6-0.4,0.9c-0.3,0.2-0.6,0.4-1,0.4s-0.8-0.2-1-0.5c-0.3-0.3-0.4-0.7-0.4-1.2v-0.5L-399.2,69.5L-399.2,69.5z
			 M-386.5,63.1c0-0.4,0.1-0.7,0.3-1c0.2-0.3,0.5-0.4,0.9-0.4s0.7,0.1,0.9,0.4c0.2,0.3,0.3,0.6,0.3,1v6.7c0,0.4-0.1,0.7-0.3,1
			c-0.2,0.3-0.5,0.4-0.9,0.4c-0.3,0-0.6-0.1-0.9-0.4s-0.3-0.6-0.3-1V63.1z"/>
		<path class="st4" d="M-399.4,82c0-1.3,0.3-2.5,0.9-3.6s1.4-1.9,2.5-2.5s2.5-0.9,4.1-0.9h7.1c0.4,0,0.8,0.1,1.1,0.4
			c0.3,0.3,0.4,0.6,0.4,1.1c0,0.4-0.1,0.8-0.4,1.1c-0.3,0.3-0.6,0.4-1.1,0.4h-7.1c-1.1,0-2,0.2-2.7,0.6s-1.2,1-1.6,1.7
			c-0.3,0.7-0.5,1.5-0.5,2.3s0.2,1.6,0.5,2.2s0.8,1.2,1.3,1.6c0.6,0.4,1.2,0.6,1.9,0.6v1.8c-1.2,0-2.3-0.3-3.2-0.9s-1.7-1.4-2.3-2.4
			S-399.4,83.3-399.4,82z M-399.2,88.4c0-0.4,0.1-0.8,0.4-1.1c0.3-0.3,0.6-0.4,1.1-0.4h12.9c0.4,0,0.8,0.1,1.1,0.4
			c0.3,0.3,0.4,0.6,0.4,1.1c0,0.4-0.1,0.8-0.4,1.1s-0.6,0.4-1.1,0.4h-12.9c-0.4,0-0.8-0.1-1.1-0.4
			C-399.1,89.2-399.2,88.9-399.2,88.4z"/>
		<path class="st4" d="M-399.4,102.3c0-1.5,0.4-2.9,1.1-4.1s1.7-2.2,2.9-2.9c1.2-0.7,2.6-1.1,4.1-1.1s2.9,0.3,4.1,1
			c1.2,0.6,2.2,1.5,2.9,2.7c0.7,1.1,1.1,2.4,1.1,3.8c0,1.1-0.2,2.2-0.7,3.2s-1.1,1.8-1.9,2.4h7.8c0.4,0,0.8,0.1,1.1,0.4
			c0.3,0.3,0.4,0.6,0.4,1.1c0,0.4-0.1,0.8-0.4,1.1c-0.3,0.3-0.6,0.4-1.1,0.4h-13.2c-1.5,0-2.9-0.4-4.1-1.1s-2.2-1.7-2.9-2.9
			S-399.4,103.8-399.4,102.3z M-396.8,102.3c0,1,0.2,1.9,0.7,2.6s1.1,1.4,2,1.8c0.8,0.4,1.8,0.7,2.8,0.7s2-0.2,2.8-0.7
			c0.8-0.4,1.5-1.1,1.9-1.8s0.7-1.7,0.7-2.6c0-1-0.2-1.8-0.7-2.6c-0.5-0.8-1.1-1.4-1.9-1.9s-1.7-0.7-2.8-0.7c-1,0-2,0.2-2.8,0.7
			s-1.5,1.1-2,1.9C-396.5,100.5-396.8,101.4-396.8,102.3z"/>
		<path class="st4" d="M-399.2,117.3c0-0.4,0.1-0.8,0.4-1.1c0.3-0.3,0.6-0.4,1.1-0.4h12.8c0.4,0,0.8,0.1,1.1,0.4
			c0.3,0.3,0.4,0.6,0.4,1.1c0,0.4-0.1,0.8-0.4,1.1c-0.3,0.3-0.6,0.4-1.1,0.4h-12.9c-0.4,0-0.8-0.1-1.1-0.4
			C-399.1,118.1-399.2,117.7-399.2,117.3z M-380.8,117.3c0-0.5,0.2-1,0.6-1.3s0.8-0.6,1.3-0.6s1,0.2,1.3,0.6s0.6,0.8,0.6,1.3
			s-0.2,1-0.6,1.3s-0.8,0.6-1.3,0.6s-1-0.2-1.3-0.6C-380.5,118.2-380.8,117.8-380.8,117.3z"/>
		<path class="st4" d="M-399.4,131.5c0-1.6,0.3-2.9,1-4.1s1.6-2.1,2.8-2.8c1.2-0.7,2.6-1,4.2-1s3,0.3,4.2,1s2.2,1.6,2.8,2.8
			c0.7,1.2,1,2.6,1,4.1s-0.3,2.9-1,4.1c-0.7,1.2-1.6,2.1-2.8,2.8c-1.2,0.7-2.6,1-4.2,1s-3-0.3-4.2-1s-2.2-1.6-2.8-2.8
			C-399,134.4-399.4,133-399.4,131.5z M-396.8,131.5c0,1,0.2,1.9,0.7,2.7s1.1,1.4,1.9,1.8s1.7,0.7,2.8,0.7s2-0.2,2.8-0.7
			c0.8-0.4,1.5-1,1.9-1.8s0.7-1.7,0.7-2.7s-0.2-1.9-0.7-2.7s-1.1-1.4-1.9-1.8s-1.8-0.7-2.8-0.7c-1.1,0-2,0.2-2.8,0.7
			c-0.8,0.4-1.5,1.1-1.9,1.8C-396.5,129.6-396.8,130.5-396.8,131.5z"/>
	</g>
</g>
<g>
	<path class="st5" d="M282.5,124.5v-111c0-5,4.1-9,9-9H336"/>
	<g>
		<g>
			<path class="st5" d="M4.3,124.4h58.9c16.5,0,30-13.5,30-30c0-9.9-4.8-18.6-12.2-24.1"/>
		</g>
		<g>
			<path class="st5" d="M72.7,4.3c-12,0-38.5,0-38.5,0c-16.5,0-30,13.5-30,30s13.5,30,30,30h27.5"/>
		</g>
		<path class="st5" d="M173.4,64.4l-26.1,56.1c-2.4,5.2-6.3,5.2-8.7,0L88.2,12.1"/>
		<path class="st5" d="M267.6,4.3c-24.6,0-60,0-60.3,0c-6.9,0-8.7,5.8-9.6,7.7l0,0l-16.6,35.6"/>
		<path class="st5" d="M195.4,91.5v23.7c0,5,4.1,9.2,9.2,9.2h61"/>
		<path class="st5" d="M238.3,64.4h-33.8c-5,0-9.2,4.1-9.2,9.2"/>
	</g>
	<g>
		<path class="st6" d="M305.7,25.2c0-0.5,0.2-1,0.6-1.4s0.9-0.6,1.4-0.6c0.6,0,1,0.2,1.4,0.6s0.6,0.9,0.6,1.4c0,0.6-0.2,1-0.6,1.4
			s-0.9,0.6-1.4,0.6s-1-0.2-1.4-0.6C305.9,26.3,305.7,25.8,305.7,25.2z"/>
		<path class="st6" d="M306,37.1c0-1.4,0.2-2.6,0.6-3.8s0.9-2,1.6-2.7c0.3-0.3,0.7-0.4,1.1-0.4s0.7,0.2,1,0.6s0.4,0.8,0.4,1.1
			c0,0.3-0.2,0.7-0.5,1c-0.4,0.3-0.7,0.9-1,1.6s-0.5,1.5-0.5,2.4c0,1.1,0.2,2,0.6,2.6s0.8,0.9,1.4,0.9s1.1-0.3,1.5-0.8
			c0.4-0.6,0.8-1.6,1-3.1c0.4-2,1-3.4,1.7-4.2c0.7-0.8,1.7-1.3,2.8-1.3c1,0,1.8,0.3,2.5,0.9c0.7,0.6,1.1,1.3,1.5,2.2
			c0.3,0.9,0.5,1.9,0.5,2.8c0,1.3-0.2,2.4-0.6,3.4s-1,1.8-1.7,2.3c-0.3,0.3-0.6,0.4-1,0.4c-0.3,0-0.6-0.2-0.9-0.5
			c-0.2-0.3-0.3-0.7-0.2-1.1c0.1-0.4,0.3-0.8,0.5-1.1c0.5-0.5,0.8-1,1-1.6s0.3-1.2,0.3-1.9c0-0.9-0.1-1.6-0.4-2.2s-0.7-0.9-1.3-0.9
			c-0.3,0-0.7,0.1-0.9,0.3c-0.3,0.2-0.5,0.5-0.8,1.1s-0.4,1.3-0.7,2.4c-0.3,1.5-0.7,2.6-1.1,3.4s-1,1.4-1.6,1.8s-1.3,0.6-2,0.6
			c-0.9,0-1.7-0.2-2.4-0.7s-1.3-1.2-1.7-2.1C306.2,39.6,306,38.4,306,37.1z"/>
		<path class="st6" d="M306.2,52.8c0-1,0.2-1.8,0.7-2.6s1.2-1.4,2-1.8c0.9-0.4,1.8-0.7,2.9-0.7h13.8c0.4,0,0.8,0.1,1,0.4
			c0.3,0.3,0.4,0.6,0.4,1s-0.1,0.8-0.4,1c-0.3,0.3-0.6,0.4-1,0.4h-13.8c-0.8,0-1.4,0.2-1.9,0.6s-0.8,0.9-0.8,1.6v1
			c0,0.3-0.1,0.6-0.4,0.9c-0.3,0.2-0.6,0.4-1,0.4s-0.8-0.2-1-0.5c-0.3-0.3-0.4-0.7-0.4-1.2v-0.5L306.2,52.8L306.2,52.8z M318.9,46.4
			c0-0.4,0.1-0.7,0.3-1s0.5-0.4,0.9-0.4s0.7,0.1,0.9,0.4s0.3,0.6,0.3,1v6.7c0,0.4-0.1,0.7-0.3,1s-0.5,0.4-0.9,0.4
			c-0.3,0-0.6-0.1-0.9-0.4s-0.3-0.6-0.3-1V46.4z"/>
		<path class="st6" d="M306,65.3c0-1.3,0.3-2.5,0.9-3.6s1.4-1.9,2.5-2.5s2.5-0.9,4.1-0.9h7.1c0.4,0,0.8,0.1,1.1,0.4
			c0.3,0.3,0.4,0.6,0.4,1.1c0,0.4-0.1,0.8-0.4,1.1s-0.6,0.4-1.1,0.4h-7.1c-1.1,0-2,0.2-2.7,0.6s-1.2,1-1.6,1.7
			c-0.3,0.7-0.5,1.5-0.5,2.3s0.2,1.6,0.5,2.2s0.8,1.2,1.3,1.6c0.6,0.4,1.2,0.6,1.9,0.6v1.8c-1.2,0-2.3-0.3-3.2-0.9s-1.7-1.4-2.3-2.4
			S306,66.6,306,65.3z M306.2,71.7c0-0.4,0.1-0.8,0.4-1.1c0.3-0.3,0.6-0.4,1.1-0.4h12.9c0.4,0,0.8,0.1,1.1,0.4
			c0.3,0.3,0.4,0.6,0.4,1.1c0,0.4-0.1,0.8-0.4,1.1s-0.6,0.4-1.1,0.4h-12.9c-0.4,0-0.8-0.1-1.1-0.4C306.3,72.5,306.2,72.2,306.2,71.7
			z"/>
		<path class="st6" d="M306,85.6c0-1.5,0.4-2.9,1.1-4.1s1.7-2.2,2.9-2.9c1.2-0.7,2.6-1.1,4.1-1.1s2.9,0.3,4.1,1
			c1.2,0.6,2.2,1.5,2.9,2.7c0.7,1.1,1.1,2.4,1.1,3.8c0,1.1-0.2,2.2-0.7,3.2s-1.1,1.8-1.9,2.4h7.8c0.4,0,0.8,0.1,1.1,0.4
			c0.3,0.3,0.4,0.6,0.4,1.1c0,0.4-0.1,0.8-0.4,1.1c-0.3,0.3-0.6,0.4-1.1,0.4h-13.2c-1.5,0-2.9-0.4-4.1-1.1s-2.2-1.7-2.9-2.9
			C306.6,88.4,306,87.1,306,85.6z M308.6,85.6c0,1,0.2,1.9,0.7,2.6s1.1,1.4,2,1.8c0.8,0.4,1.8,0.7,2.8,0.7s2-0.2,2.8-0.7
			c0.8-0.4,1.5-1.1,1.9-1.8c0.4-0.7,0.7-1.7,0.7-2.6c0-1-0.2-1.8-0.7-2.6c-0.5-0.8-1.1-1.4-1.9-1.9s-1.7-0.7-2.8-0.7
			c-1,0-2,0.2-2.8,0.7s-1.5,1.1-2,1.9C308.9,83.8,308.6,84.7,308.6,85.6z"/>
		<path class="st6" d="M306.2,100.6c0-0.4,0.1-0.8,0.4-1.1c0.3-0.3,0.6-0.4,1.1-0.4h12.8c0.4,0,0.8,0.1,1.1,0.4s0.4,0.6,0.4,1.1
			c0,0.4-0.1,0.8-0.4,1.1c-0.3,0.3-0.6,0.4-1.1,0.4h-12.9c-0.4,0-0.8-0.1-1.1-0.4C306.3,101.4,306.2,101,306.2,100.6z M324.6,100.6
			c0-0.5,0.2-1,0.6-1.3s0.8-0.6,1.3-0.6s1,0.2,1.3,0.6s0.6,0.8,0.6,1.3s-0.2,1-0.6,1.3s-0.8,0.6-1.3,0.6s-1-0.2-1.3-0.6
			C324.9,101.5,324.6,101.1,324.6,100.6z"/>
		<path class="st6" d="M306,114.8c0-1.6,0.3-2.9,1-4.1s1.6-2.1,2.8-2.8c1.2-0.7,2.6-1,4.2-1s3,0.3,4.2,1s2.2,1.6,2.8,2.8
			c0.7,1.2,1,2.6,1,4.1s-0.3,2.9-1,4.1s-1.6,2.1-2.8,2.8c-1.2,0.7-2.6,1-4.2,1s-3-0.3-4.2-1s-2.2-1.6-2.8-2.8S306,116.3,306,114.8z
			 M308.6,114.8c0,1,0.2,1.9,0.7,2.7s1.1,1.4,1.9,1.8s1.7,0.7,2.8,0.7s2-0.2,2.8-0.7c0.8-0.4,1.5-1,1.9-1.8s0.7-1.7,0.7-2.7
			s-0.2-1.9-0.7-2.7c-0.5-0.8-1.1-1.4-1.9-1.8s-1.8-0.7-2.8-0.7c-1.1,0-2,0.2-2.8,0.7c-0.8,0.4-1.5,1.1-1.9,1.8
			C308.9,112.9,308.6,113.8,308.6,114.8z"/>
	</g>
</g>
</svg>
